<?xml version="1.0" encoding="UTF-8"?>
<svg width="12px" height="142px" viewBox="0 0 12 142" version="1.1" xmlns="http://www.w3.org/2000/svg" xmlns:xlink="http://www.w3.org/1999/xlink">
    <!-- Generator: Sketch 46.2 (44496) - http://www.bohemiancoding.com/sketch -->
    <title>Table arrows</title>
    <desc>Created with Sketch.</desc>
    <defs></defs>
    <g id="Page-1" stroke="none" stroke-width="1" fill="none" fill-rule="evenodd">
        <g id="Tasks" transform="translate(-825.000000, -832.000000)">
            <g id="Table-arrows" transform="translate(825.000000, 828.000000)">
                <path d="M9.65685425,4.05685425 L9.65685425,1.65685425 L1.65685425,1.65685425 L1.65685425,9.65685425 L4.05685425,9.65685425 L4.05685425,4.05685425 L9.65685425,4.05685425 Z" id="Combined-Shape-Copy" fill="#B3B3B3" transform="translate(5.656854, 5.656854) scale(1, -1) rotate(45.000000) translate(-5.656854, -5.656854) "></path>
                <path d="M9.65685425,71.0568542 L9.65685425,68.6568542 L1.65685425,68.6568542 L1.65685425,76.6568542 L4.05685425,76.6568542 L4.05685425,71.0568542 L9.65685425,71.0568542 Z" id="Combined-Shape-Copy-2" fill="#0D0F0F" transform="translate(5.656854, 72.656854) rotate(45.000000) translate(-5.656854, -72.656854) "></path>
                <path d="M9.65685425,138.056854 L9.65685425,135.656854 L1.65685425,135.656854 L1.65685425,143.656854 L4.05685425,143.656854 L4.05685425,138.056854 L9.65685425,138.056854 Z" id="Combined-Shape-Copy-2" fill="#0D0F0F" transform="translate(5.656854, 139.656854) scale(1, -1) rotate(45.000000) translate(-5.656854, -139.656854) "></path>
            </g>
        </g>
    </g>
</svg>